# xmcd
#
# Track frame offsets:
#	150
#	14968
#	28039
#	43527
#	57772
#	68209
#	82825
#	97999
#	109745
#	125496
#	140127
#	154101
#	167232
#	182827
#	199587
#
# Disc length: 2824 seconds
#
# Revision: 1
# Processed by: cddbd v1.5.2PL0 Copyright (c) Steve Scherf et al.
# Submitted via: audiograbber 1.83.01
#
DISCID=ce0b060f
DTITLE=Merle Haggard - Chartbuster Karaoke - Country Artist Series - Merle Hagg
DTITLE=ard - Volume 2 - CB 90025
DYEAR=1900
DGENRE=Karaoke
TTITLE0=Ramblin' Fever
TTITLE1=Okie From Muskogee
TTITLE2=Silver Wings
TTITLE3=Big City
TTITLE4=Mama Tried
TTITLE5=That's The Way Love Goes
TTITLE6=Branded Man
TTITLE7=Workin' Man's Blues
TTITLE8=Twinkle Twinkle Lucky Star
TTITLE9=Working Man Can't Get Nowhere Today, A
TTITLE10=Cherokee Maiden
TTITLE11=Kentucky Gambler
TTITLE12=Someday When Things Are Good
TTITLE13=Hungry Eyes
TTITLE14=Today I Started Loving You Again
EXTD=
EXTT0=
EXTT1=
EXTT2=
EXTT3=
EXTT4=
EXTT5=
EXTT6=
EXTT7=
EXTT8=
EXTT9=
EXTT10=
EXTT11=
EXTT12=
EXTT13=
EXTT14=
PLAYORDER=
